# xmcd
#
# Track frame offsets:
# 150
# 15627
# 31005
# 48364
# 63450
# 81037
# 96937
# 111757
# 123567
# 137720
# 148235
# 161490
#
# Disc length: 2342 seconds
#
#
# Revision: 2
# Processed by: cddbd v1.5.1PL0 Copyright (c) Steve Scherf et al.
# Submitted via: FreeRIP 2.94 
#
DISCID=9f09240c
DTITLE=Various Artist - Relíquias Sertanejas
DYEAR=1900
DGENRE=Country
TTITLE0=Meu Cavalo Zaino - Torres and Florencio
TTITLE1=Cabocla Tereza - Duo Glacial
TTITLE2=Tristeza do Jeca - Tiao Carreiro and Pardinho
TTITLE3=Chitaozinho e Chororo - Nonô and Naná
TTITLE4=Menino da Porteira - Tiao Carreiro and Pardinho
TTITLE5=Chico Mulato - Torres and Florencio
TTITLE6=Beijinho Doce - Irmãs Castro
TTITLE7=Joao de Barro - Itaporanga and Itararé
TTITLE8=Pingo d'Agua - Torres and Florencio
TTITLE9=Mineirinha - Torres and Florencio
TTITLE10=Mourao da Porteira - Duo Glacial
TTITLE11=Canoeiro - Ze Carreiro and Carreirinho
EXTD=dfgghhjjj
EXTT0=
EXTT1=
EXTT2=
EXTT3=
EXTT4=
EXTT5=
EXTT6=
EXTT7=
EXTT8=
EXTT9=
EXTT10=
EXTT11=
PLAYORDER=
